<?xml version="1.0" standalone="no"?>
<!DOCTYPE svg PUBLIC "-//W3C//DTD SVG 20010904//EN"
 "http://www.w3.org/TR/2001/REC-SVG-20010904/DTD/svg10.dtd">
<svg version="1.0" xmlns="http://www.w3.org/2000/svg"
 width="320.000000pt" height="40.000000pt" viewBox="0 0 320.000000 40.000000"
 preserveAspectRatio="xMidYMid meet">

<g transform="translate(0.000000,40.000000) scale(0.100000,-0.100000)"
fill="#000000" stroke="none">
<path d="M1030 220 l0 -120 25 0 c24 0 25 3 25 59 0 41 5 62 16 72 23 19 34
-4 34 -73 0 -55 1 -58 25 -58 24 0 25 2 25 68 0 87 -13 107 -64 99 l-36 -6 0
40 c0 35 -3 39 -25 39 l-25 0 0 -120z"/>
<path d="M2297 333 c-4 -3 -7 -57 -7 -120 l0 -113 30 0 c29 0 29 0 32 68 2 52
6 67 18 67 12 0 16 -15 18 -67 3 -65 4 -68 27 -68 24 0 25 2 25 74 0 83 -11
101 -60 94 -29 -4 -30 -3 -30 34 0 33 -3 38 -23 38 -13 0 -27 -3 -30 -7z"/>
<path d="M1630 317 c-13 -7 -29 -25 -34 -39 -12 -34 11 -63 67 -85 39 -16 46
-33 22 -53 -11 -9 -22 -9 -46 -1 -31 11 -49 8 -49 -9 0 -16 42 -32 83 -32 49
1 77 25 77 67 0 36 -22 60 -63 71 -32 7 -45 30 -28 47 8 8 19 8 41 0 23 -9 32
-8 41 3 9 11 5 17 -24 29 -44 18 -55 18 -87 2z"/>
<path d="M630 317 c0 -2 -13 -48 -30 -103 -16 -54 -30 -102 -30 -106 0 -5 11
-8 25 -8 18 0 26 7 31 25 5 20 12 25 39 25 27 0 34 -4 37 -22 2 -17 11 -24 31
-26 15 -2 27 0 27 3 0 4 -14 54 -32 111 l-31 104 -34 0 c-18 0 -33 -2 -33 -3z
m49 -104 c1 -17 -5 -23 -20 -23 -16 0 -19 4 -14 23 4 12 9 31 12 42 l6 20 8
-20 c4 -11 8 -30 8 -42z"/>
<path d="M910 290 c0 -16 -7 -20 -34 -20 -19 0 -37 -6 -40 -12 -5 -10 -7 -10
-12 0 -3 6 -14 12 -25 12 -17 0 -19 -8 -19 -85 0 -84 0 -85 25 -85 24 0 25 3
25 55 0 43 4 56 19 64 10 6 21 7 25 4 3 -3 6 -1 6 5 0 6 7 9 15 6 11 -4 15
-21 15 -59 0 -60 14 -78 61 -77 37 1 41 4 33 26 -3 9 -14 15 -23 14 -12 -2
-17 7 -19 43 -3 40 0 47 18 52 26 7 26 37 0 37 -13 0 -20 7 -20 20 0 15 -7 20
-25 20 -18 0 -25 -5 -25 -20z"/>
<path d="M1212 194 c3 -64 6 -79 23 -90 17 -11 25 -11 48 1 15 7 27 10 27 4 0
-5 11 -9 25 -9 25 0 25 1 25 86 l0 85 -27 -3 c-27 -3 -28 -6 -33 -68 -4 -49
-9 -65 -20 -65 -12 0 -16 15 -18 68 -3 64 -4 67 -28 67 -25 0 -25 -1 -22 -76z"/>
<path d="M1400 185 c0 -84 0 -85 25 -85 24 0 25 3 25 55 0 43 4 56 19 64 10 6
21 8 23 5 3 -3 8 7 10 21 4 21 1 25 -18 25 -12 0 -25 -6 -28 -12 -5 -10 -7
-10 -12 0 -3 6 -14 12 -25 12 -17 0 -19 -8 -19 -85z"/>
<path d="M1790 250 c0 -16 6 -19 38 -17 48 3 54 -26 6 -31 -45 -4 -70 -35 -58
-69 11 -33 44 -45 75 -29 17 9 29 9 41 2 25 -15 32 -2 29 62 -3 82 -19 102
-81 102 -43 0 -50 -3 -50 -20z m78 -92 c-2 -13 -11 -24 -21 -26 -22 -4 -35 27
-16 39 25 16 41 10 37 -13z"/>
<path d="M1960 185 c0 -84 0 -85 25 -85 24 0 25 2 25 64 0 60 8 76 36 76 2 0
4 -31 4 -70 0 -68 1 -70 25 -70 26 0 26 0 23 83 l-3 82 -33 3 c-18 2 -40 -2
-48 -9 -10 -8 -14 -8 -14 0 0 6 -9 11 -20 11 -18 0 -20 -7 -20 -85z"/>
<path d="M2172 264 c-7 -3 -19 -19 -28 -36 -19 -37 -12 -88 16 -113 21 -19 86
-23 102 -7 15 15 -1 34 -25 30 -33 -4 -47 10 -47 47 0 37 13 50 50 50 16 0 25
6 25 15 0 11 -12 16 -40 17 -22 1 -46 -1 -53 -3z"/>
<path d="M2491 244 c-28 -35 -27 -86 2 -119 23 -27 61 -35 105 -21 34 11 20
31 -18 28 -32 -2 -60 11 -60 29 0 5 25 9 56 9 l57 0 -7 32 c-9 47 -33 68 -77
68 -29 0 -42 -6 -58 -26z m79 -8 c0 -2 3 -11 6 -20 5 -13 -1 -16 -25 -16 -33
0 -34 1 -25 24 5 14 44 24 44 12z"/>
<path d="M2662 258 c-29 -29 -5 -77 46 -92 12 -4 22 -14 22 -22 0 -16 -23 -18
-50 -4 -23 12 -48 -11 -28 -27 38 -30 106 -20 125 17 16 32 2 56 -42 75 -46
19 -47 39 -1 31 24 -5 35 -3 39 8 3 8 -1 17 -9 20 -27 10 -90 6 -102 -6z"/>
</g>
</svg>
